HIERARCHY
ROOT Hips
{
	OFFSET 47.253101 -12.395313 84.192299
	CHANNELS 6 Xposition Yposition Zposition Xrotation Yrotation Zrotation
	JOINT spine
	{
		OFFSET 0.000000 -0.359108 6.244789
		CHANNELS 3 Xrotation Yrotation Zrotation
		JOINT spine1
		{
			OFFSET 0.000000 -0.000002 9.069412
			CHANNELS 3 Xrotation Yrotation Zrotation
			JOINT spine2
			{
				OFFSET 0.000000 -0.000001 8.690140
				CHANNELS 3 Xrotation Yrotation Zrotation
				JOINT Neck
				{
					OFFSET 0.000000 -1.063724 22.311203
					CHANNELS 3 Xrotation Yrotation Zrotation
					JOINT Head
					{
						OFFSET 0.000000 -0.000001 6.740814
						CHANNELS 3 Xrotation Yrotation Zrotation
						End Site
						{
							OFFSET 0.000000 5.380967 16.316498
						}
					}
				}
				JOINT RightShoulder
				{
					OFFSET -3.659161 0.509512 9.384682
					CHANNELS 3 Xrotation Yrotation Zrotation
					JOINT RightArm
					{
						OFFSET 0.000000 -0.000002 12.308907
						CHANNELS 3 Xrotation Yrotation Zrotation
						JOINT RightArmRoll
						{
							OFFSET 0.000000 -0.000001 6.213745
							CHANNELS 3 Xrotation Yrotation Zrotation
							JOINT RightForeArm
							{
								OFFSET 0.000000 -0.000003 18.098495
								CHANNELS 3 Xrotation Yrotation Zrotation
								JOINT RightForeArmRoll
								{
									OFFSET 0.000000 -0.000002 6.972794
									CHANNELS 3 Xrotation Yrotation Zrotation
									JOINT RightHand
									{
										OFFSET 0.000000 -0.000002 13.992905
										CHANNELS 3 Xrotation Yrotation Zrotation
										End Site
										{
											OFFSET 0.000000 0.000000 0.100006
										}
									}
								}
							}
						}
					}
				}
				JOINT LeftShoulder
				{
					OFFSET 3.659161 0.509512 9.384682
					CHANNELS 3 Xrotation Yrotation Zrotation
					JOINT LeftArm
					{
						OFFSET 0.000000 -0.000002 12.308907
						CHANNELS 3 Xrotation Yrotation Zrotation
						JOINT LeftArmRoll
						{
							OFFSET 0.000000 -0.000001 6.213745
							CHANNELS 3 Xrotation Yrotation Zrotation
							JOINT LeftForeArm
							{
								OFFSET 0.000000 -0.000003 18.098495
								CHANNELS 3 Xrotation Yrotation Zrotation
								JOINT LeftForeArmRoll
								{
									OFFSET 0.000000 -0.000002 6.972794
									CHANNELS 3 Xrotation Yrotation Zrotation
									JOINT LeftHand
									{
										OFFSET 0.000000 -0.000002 13.992905
										CHANNELS 3 Xrotation Yrotation Zrotation
										End Site
										{
											OFFSET 0.000000 0.000000 0.100006
										}
									}
								}
							}
						}
					}
				}
			}
		}
	}
	JOINT RightUpLeg
	{
		OFFSET -5.535149 0.851454 -1.014999
		CHANNELS 3 Xrotation Yrotation Zrotation
		JOINT RightUpLegRoll
		{
			OFFSET 0.000000 -0.000003 16.407501
			CHANNELS 3 Xrotation Yrotation Zrotation
			JOINT RightLeg
			{
				OFFSET 0.000000 0.000003 -20.318100
				CHANNELS 3 Xrotation Yrotation Zrotation
				JOINT RightLegRoll
				{
					OFFSET 0.000000 -0.000003 20.384598
					CHANNELS 3 Xrotation Yrotation Zrotation
					JOINT RightFoot
					{
						OFFSET 0.000000 -0.000003 16.966805
						CHANNELS 3 Xrotation Yrotation Zrotation
						JOINT RightToeBase
						{
							OFFSET 0.000000 -0.000002 14.183395
							CHANNELS 3 Xrotation Yrotation Zrotation
							End Site
							{
								OFFSET 0.006012 0.791744 6.868896
							}
						}
					}
				}
			}
		}
	}
	JOINT LeftUpLeg
	{
		OFFSET 5.535149 0.851454 -1.014999
		CHANNELS 3 Xrotation Yrotation Zrotation
		JOINT LeftUpLegRoll
		{
			OFFSET 0.000000 -0.000003 16.407600
			CHANNELS 3 Xrotation Yrotation Zrotation
			JOINT LeftLeg
			{
				OFFSET 0.000000 -0.000003 20.318100
				CHANNELS 3 Xrotation Yrotation Zrotation
				JOINT LeftLegRoll
				{
					OFFSET 0.000000 -0.000004 20.573105
					CHANNELS 3 Xrotation Yrotation Zrotation
					JOINT LeftFoot
					{
						OFFSET 0.000000 -0.000003 16.778305
						CHANNELS 3 Xrotation Yrotation Zrotation
						JOINT LeftToeBase
						{
							OFFSET 0.000000 -0.000002 14.183395
							CHANNELS 3 Xrotation Yrotation Zrotation
							End Site
							{
								OFFSET -0.026943 0.791745 6.868896
							}
						}
					}
				}
			}
		}
	}
}
MOTION
Frames: 7
Frame Time: 0.041667
46.984592 -12.868810 84.214294 -1.149158 -0.208385 -4.100030 -1.670371 0.234147 0.054898 0.672801 0.465843 0.119592 2.317897 0.467253 0.114012 14.215584 -4.957061 1.867287 -2.868493 4.650431 2.031411 1.043502 -68.501764 0.072014 -49.527303 -127.219827 -88.633104 -0.000004 -0.000008 0.000005 88.355259 -0.332887 -5.802976 0.000001 0.000007 -2.999999 -5.000024 -8.000008 0.000019 -17.689751 58.709007 20.895219 -40.188311 129.502190 84.688035 -0.000009 0.000008 0.000000 80.666385 4.630721 2.360124 0.000002 -0.000007 2.999999 -5.000003 7.999950 -0.000026 -7.831925 -176.415658 0.468864 -179.999991 0.000005 -0.858003 166.805609 -1.166379 -1.117432 0.000002 0.000003 0.192690 70.791318 5.853076 4.821270 25.456858 -7.355621 -0.000004 0.057805 176.125006 -3.206726 -0.000005 -0.000004 -1.051210 -10.267321 1.764337 0.905013 -0.000003 0.000002 -0.226946 73.320517 -6.585849 -2.691582 25.459486 7.355614 -0.003836 
46.986294 -12.863810 84.213600 -1.150530 -0.207471 -4.094806 -1.668414 0.233046 0.053289 0.676439 0.463712 0.116205 2.321536 0.465082 0.110649 14.218331 -4.935859 1.879818 -2.867898 4.659672 2.041364 1.043677 -68.499462 0.072505 -49.585312 -127.223447 -88.522134 -0.000002 -0.000006 0.000002 88.384943 -0.326837 -5.807707 -0.000000 0.000004 -3.000000 -5.000021 -8.000014 0.000022 -17.663226 58.739169 20.863829 -40.289561 129.470184 84.693014 -0.000006 0.000006 -0.000001 80.659193 4.614979 2.371727 0.000003 -0.000007 3.000003 -5.000002 7.999948 -0.000026 -7.828111 -176.415631 0.471076 -179.999991 0.000005 -0.858004 166.812098 -1.170307 -1.117216 0.000002 0.000003 0.192690 70.790553 5.854404 4.818334 25.456861 -7.355622 -0.000004 0.062827 176.114993 -3.223317 -0.000005 -0.000005 -1.051050 -10.253109 1.781371 0.905254 -0.000003 0.000003 -0.226260 73.308113 -6.587209 -2.688310 25.459482 7.355614 -0.003836 
46.990791 -12.848310 84.206795 -1.153087 -0.206693 -4.089939 -1.665924 0.231770 0.051391 0.680950 0.461256 0.112151 2.326045 0.462579 0.106625 14.218572 -4.910152 1.893426 -2.866467 4.665440 2.052296 1.038561 -68.490787 0.067848 -49.640162 -127.236275 -88.412626 -0.000003 -0.000007 0.000002 88.417844 -0.319994 -5.814020 0.000000 0.000003 -3.000002 -5.000022 -8.000010 0.000021 -17.637329 58.770964 20.833206 -40.392134 129.437713 84.692488 -0.000008 0.000006 0.000001 80.657014 4.596140 2.386771 0.000002 -0.000007 3.000001 -5.000002 7.999948 -0.000026 -7.822523 -176.415576 0.474197 -179.999991 0.000005 -0.858004 166.819680 -1.174241 -1.116962 0.000003 0.000003 0.192690 70.789549 5.855985 4.814756 25.456863 -7.355620 -0.000005 0.070755 176.103013 -3.243779 -0.000005 -0.000005 -1.050890 -10.235918 1.802340 0.905519 -0.000004 0.000003 -0.225548 73.294132 -6.589260 -2.683133 25.459481 7.355613 -0.003835 
46.988892 -12.850212 84.207695 -1.156636 -0.206033 -4.085400 -1.663001 0.230355 0.049258 0.686191 0.458545 0.107558 2.331284 0.459813 0.102061 14.216633 -4.880858 1.907910 -2.864433 4.668396 2.064027 1.028535 -68.476751 0.058340 -49.695623 -127.255590 -88.308383 -0.000006 -0.000006 0.000003 88.453750 -0.312390 -5.821618 -0.000001 0.000005 -2.999999 -5.000022 -8.000007 0.000018 -17.611904 58.804015 20.803170 -40.496960 129.404081 84.688226 -0.000008 0.000010 -0.000001 80.660129 4.573940 2.405732 0.000004 -0.000005 3.000000 -4.999999 7.999955 -0.000026 -7.815456 -176.415522 0.478026 -179.999991 0.000005 -0.858003 166.828272 -1.178179 -1.116701 0.000002 0.000003 0.192690 70.788279 5.857713 4.810916 25.456863 -7.355619 -0.000005 0.081087 176.090009 -3.267429 -0.000005 -0.000005 -1.050730 -10.216145 1.826535 0.905792 -0.000004 0.000002 -0.224816 73.278975 -6.591884 -2.676212 25.459479 7.355614 -0.003835 
46.987690 -12.863111 84.218590 -1.160956 -0.205475 -4.081124 -1.659733 0.228837 0.046947 0.692014 0.455645 0.102545 2.337114 0.456855 0.097082 14.213131 -4.848899 1.923102 -2.861996 4.669193 2.076418 1.013980 -68.458433 0.044284 -49.750077 -127.281682 -88.206675 -0.000004 -0.000006 0.000005 88.492354 -0.303994 -5.830697 -0.000001 0.000005 -3.000000 -5.000024 -8.000012 0.000023 -17.586772 58.837941 20.773482 -40.602865 129.369889 84.679367 -0.000009 0.000010 0.000002 80.668844 4.548273 2.428081 0.000002 -0.000009 3.000000 -5.000002 7.999946 -0.000027 -7.807230 -176.415440 0.482370 -179.999991 0.000005 -0.858003 166.837438 -1.183092 -1.116654 0.000002 0.000003 0.192689 70.786639 5.859621 4.806726 25.456863 -7.355620 -0.000004 0.093307 176.076007 -3.293555 -0.000005 -0.000005 -1.050580 -10.194491 1.853263 0.906071 -0.000002 0.000003 -0.224069 73.262720 -6.595016 -2.668130 25.459487 7.355614 -0.003835 
46.986294 -12.857209 84.217003 -1.165860 -0.205003 -4.077091 -1.656204 0.227252 0.044514 0.698275 0.452625 0.097240 2.343373 0.453772 0.091812 14.208293 -4.815203 1.938795 -2.859406 4.668496 2.089292 0.995283 -68.436843 0.025990 -49.804766 -127.312855 -88.108272 -0.000005 -0.000008 0.000002 88.533547 -0.294807 -5.840972 -0.000001 0.000006 -3.000002 -5.000019 -8.000015 0.000019 -17.561709 58.872262 20.743894 -40.709857 129.335151 84.666369 -0.000008 0.000010 -0.000002 80.683392 4.518909 2.454104 0.000003 -0.000006 3.000001 -5.000001 7.999952 -0.000026 -7.798163 -176.414388 0.486889 -179.999991 0.000005 -0.857005 166.847219 -1.188008 -1.116591 0.000002 0.000003 0.192689 70.784898 5.861521 4.802541 25.456863 -7.355621 -0.000004 0.106923 176.061008 -3.321495 -0.000005 -0.000004 -1.050410 -10.171444 1.881825 0.906346 -0.000004 0.000002 -0.223313 73.245835 -6.598450 -2.659131 25.459482 7.355613 -0.003835 
46.980091 -12.847010 84.213394 -1.171115 -0.204600 -4.073262 -1.652484 0.225636 0.042014 0.704831 0.449554 0.091768 2.349933 0.450637 0.086375 14.202742 -4.780686 1.954817 -2.856862 4.666978 2.102489 0.972827 -68.413074 0.003764 -49.860207 -127.348194 -88.012964 -0.000005 -0.000007 0.000007 88.577137 -0.284811 -5.852338 -0.000001 0.000001 -3.000000 -5.000019 -8.000012 0.000019 -17.536620 58.906680 20.714261 -40.817040 129.300549 84.648686 -0.000009 0.000008 -0.000003 80.704026 4.485719 2.483681 0.000004 -0.000005 2.999999 -5.000003 7.999950 -0.000027 -7.788554 -176.413309 0.491525 -179.999991 0.000006 -0.857006 166.857300 -1.192925 -1.116522 0.000003 0.000003 0.192688 70.782849 5.863478 4.798280 25.456861 -7.355621 -0.000004 0.121423 176.046008 -3.350533 -0.000005 -0.000004 -1.050240 -10.147609 1.911516 0.906616 -0.000002 0.000002 -0.222552 73.228603 -6.602109 -2.649588 25.459484 7.355614 -0.003835 
